<svg width="739" height="524" viewBox="0 0 739 524" fill="none" xmlns="http://www.w3.org/2000/svg">
<path opacity="0.929" fill-rule="evenodd" clip-rule="evenodd" d="M543.163 10C548.365 10.5243 553.601 10.8656 558.864 11.024C566.073 11.4152 570.968 14.9425 573.542 21.6053C576.416 32.0774 574.026 41.0654 566.374 48.5707C562.967 50.4125 559.328 51.4365 555.451 51.6427C550.283 51.0399 545.163 50.3572 540.091 49.5947C540.514 43.7353 540.856 37.8187 541.115 31.8453C540.207 31.8453 539.292 31.8453 538.384 31.8453C538.61 30.0247 538.842 28.2047 539.067 26.384C539.975 26.384 540.89 26.384 541.798 26.384C542.078 20.9008 542.535 15.4395 543.163 10ZM551.355 17.5093C560.441 16.1324 565.22 20.0011 565.691 29.1147C565.807 34.5787 563.984 39.2441 560.23 43.1093C556.748 44.9874 553.103 45.3287 549.307 44.1333C549.737 40.2797 550.078 36.4117 550.331 32.528C553.109 33.1861 555.949 33.4134 558.864 33.2107C559.267 31.4173 559.492 29.5966 559.547 27.7493C556.618 27.2066 553.662 26.9793 550.672 27.0667C551.014 23.8909 551.239 20.7049 551.355 17.5093Z" fill="#36B4E5"/>
<path opacity="0.843" fill-rule="evenodd" clip-rule="evenodd" d="M595.046 13.4133C599.933 15.9713 604.48 19.0433 608.699 22.6293C608.392 23.8076 607.825 24.8316 606.992 25.7013C602.152 23.7926 597.49 21.6313 592.998 19.216C593.885 17.3428 594.568 15.4088 595.046 13.4133Z" fill="#36B4E5"/>
<path opacity="0.868" fill-rule="evenodd" clip-rule="evenodd" d="M623.718 25.0187C630.319 25.5969 631.916 28.6689 628.496 34.2347C624.093 36.0158 621.137 34.6504 619.622 30.1387C619.963 29.1147 620.304 28.0907 620.646 27.0667C621.772 26.453 622.796 25.7703 623.718 25.0187Z" fill="#36B4E5"/>
<path opacity="0.915" fill-rule="evenodd" clip-rule="evenodd" d="M609.382 26.384C611.566 26.6564 613.614 27.3391 615.526 28.432C614.665 33.1568 611.935 36.1148 607.334 37.3067C607.559 44.7246 605.053 50.9819 599.824 56.08C592.465 59.1042 585.748 58.0802 579.686 53.008C576.409 46.0994 576.634 39.2728 580.368 32.528C584.253 27.9719 589.14 26.2652 595.046 27.408C598.452 28.258 601.524 29.7373 604.262 31.8454C607.04 31.0023 608.747 29.1816 609.382 26.384ZM590.95 33.8934C595.598 33.1356 597.872 35.0696 597.776 39.696C597.646 43.2753 596.622 46.5746 594.704 49.5947C591.776 52.3943 589.045 52.167 586.512 48.912C585.331 43.0131 586.813 38.0064 590.95 33.8934Z" fill="#36B4E5"/>
<path opacity="0.904" fill-rule="evenodd" clip-rule="evenodd" d="M617.573 35.9414C620.474 36.9374 623.205 38.3028 625.765 40.0374C621.669 49.1428 617.232 58.0175 612.453 66.6614C609.77 65.7221 607.381 64.3567 605.285 62.5654C609.579 53.7576 613.675 44.883 617.573 35.9414Z" fill="#36B4E5"/>
<path opacity="0.899" fill-rule="evenodd" clip-rule="evenodd" d="M642.832 49.5947C645.474 50.644 647.754 52.2366 649.659 54.3734C649.434 54.8287 649.202 55.2834 648.976 55.7387C652.731 56.1128 655.919 57.5915 658.534 60.1761C657.318 62.7258 655.837 65.1152 654.096 67.3441C651.796 63.969 648.724 62.6036 644.88 63.2481C641.173 68.6295 637.303 73.8635 633.275 78.9494C630.613 77.7342 628.339 76.0276 626.448 73.8294C632.005 65.7821 637.466 57.7041 642.832 49.5947Z" fill="#36B4E5"/>
<path opacity="0.865" fill-rule="evenodd" clip-rule="evenodd" d="M668.774 61.2001C681.048 58.5732 685.943 63.3518 683.451 75.5361C681.792 76.1846 680.086 76.1846 678.331 75.5361C678.099 72.9911 677.642 70.4878 676.966 68.0267C674.502 67.312 671.996 66.7433 669.457 66.3201C668.48 64.6237 668.255 62.917 668.774 61.2001Z" fill="#36B4E5"/>
<path opacity="0.874" fill-rule="evenodd" clip-rule="evenodd" d="M687.206 63.9307C691.889 66.2183 696.326 68.9489 700.518 72.1227C699.787 74.243 698.422 76.0637 696.422 77.584C693.009 74.1707 689.595 70.7573 686.182 67.344C685.765 65.9821 686.107 64.8441 687.206 63.9307Z" fill="#36B4E5"/>
<path opacity="0.912" fill-rule="evenodd" clip-rule="evenodd" d="M661.264 65.9788C667.128 67.6301 672.023 70.8155 675.941 75.5361C678.215 79.4048 678.215 83.2728 675.941 87.1414C670.678 92.2894 665.558 97.5234 660.581 102.843C658.431 101.034 656.383 99.099 654.437 97.0401C654.895 96.5848 655.345 96.1301 655.803 95.6748C645.535 92.8997 643.03 86.9837 648.293 77.9254C651.809 75.9423 655.448 75.715 659.216 77.2428C662.022 78.9139 664.643 80.8479 667.067 83.0454C670.146 80.6185 670.029 78.2292 666.725 75.8774C664.309 74.2561 661.803 72.7768 659.216 71.4401C660.172 69.7095 660.854 67.8889 661.264 65.9788ZM656.485 83.0454C659.196 83.7172 661.476 85.0825 663.312 87.1414C661.947 88.9621 660.356 90.5548 658.533 91.9201C653.161 89.7793 652.478 86.8206 656.485 83.0454Z" fill="#36B4E5"/>
<path opacity="0.904" fill-rule="evenodd" clip-rule="evenodd" d="M684.475 88.5066C686.339 89.2623 688.271 89.945 690.278 90.5546C692.005 90.1696 693.711 89.7142 695.398 89.1893C697.009 90.1211 698.149 91.4864 698.811 93.2853C697.248 94.7578 695.65 96.2371 694.032 97.7226C695.527 99.5624 696.893 101.496 698.128 103.525C696.975 105.072 695.493 106.21 693.691 106.939C691.889 105.247 690.182 103.427 688.571 101.477C683.915 104.658 679.594 108.185 675.6 112.059C676.856 114.109 678.447 115.816 680.379 117.179C679.246 119.593 677.423 120.617 674.918 120.251C669.968 117.738 667.354 113.756 667.067 108.304C667.791 106.214 669.04 104.507 670.822 103.184C674.747 100.256 678.727 97.4113 682.768 94.6506C682.864 93.4518 682.522 92.3145 681.744 91.2373C682.679 90.3225 683.587 89.4125 684.475 88.5066Z" fill="#36B4E5"/>
<path opacity="0.991" fill-rule="evenodd" clip-rule="evenodd" d="M18.1922 106.256C60.2909 106.142 102.388 106.256 144.486 106.597C184.77 112.074 213.1 133.35 229.477 170.427C232.386 178.406 234.434 186.598 235.621 195.003C236.372 210.69 236.714 226.392 236.645 242.107C236.714 257.822 236.372 273.523 235.621 289.211C227.737 334.418 201.679 363.204 157.456 375.568C153.169 376.473 148.841 377.155 144.486 377.616C102.387 378.071 60.2902 378.071 18.1922 377.616C14.4989 376.426 11.8816 374.037 10.3415 370.448C9.88617 284.887 9.88617 199.326 10.3415 113.765C12.0052 110.165 14.6225 107.662 18.1922 106.256ZM60.5175 151.995C86.2322 151.881 111.946 151.995 137.659 152.336C166.706 156.125 184.114 172.395 189.883 201.147C190.34 228.453 190.34 255.76 189.883 283.067C184.032 312.13 166.392 328.401 136.976 331.877C111.49 332.333 86.0035 332.333 60.5175 331.877C58.9146 331.641 57.6633 330.845 56.7628 329.488C55.6289 271.745 55.4016 213.945 56.0802 156.091C57.0605 154.082 58.5398 152.717 60.5175 151.995Z" fill="#36B4E5"/>
<path opacity="0.992" fill-rule="evenodd" clip-rule="evenodd" d="M424.379 106.256C466.479 106.142 508.573 106.256 550.673 106.597C595.449 112.698 624.919 137.16 639.078 179.984C640.252 184.252 641.16 188.576 641.809 192.955C642.573 209.322 642.915 225.706 642.833 242.107C642.915 258.508 642.573 274.892 641.809 291.259C634.975 328.809 614.154 355.32 579.345 370.789C570.094 374.354 560.537 376.63 550.673 377.616C508.573 378.071 466.479 378.071 424.379 377.616C420.399 376.365 417.778 373.747 416.529 369.765C416.071 284.659 416.071 199.554 416.529 114.448C417.928 110.437 420.543 107.706 424.379 106.256ZM466.705 151.995C492.421 151.881 518.13 151.995 543.846 152.336C569.487 154.991 586.438 168.53 594.705 192.955C595.92 197.424 596.602 201.976 596.753 206.608C597.394 232.564 597.162 258.506 596.07 284.432C591.489 307.218 578.177 322.35 556.134 329.829C552.113 330.952 548.017 331.635 543.846 331.877C518.13 332.333 492.421 332.333 466.705 331.877C464.035 331.213 462.561 329.507 462.267 326.757C461.81 270.323 461.81 213.89 462.267 157.456C462.684 154.659 464.165 152.839 466.705 151.995Z" fill="#36B4E5"/>
<path opacity="0.92" fill-rule="evenodd" clip-rule="evenodd" d="M716.56 117.861C717.366 117.712 718.048 117.939 718.608 118.544C722.37 125.042 724.875 131.983 726.117 139.365C726.001 144.827 723.728 149.15 719.291 152.336C711.112 157.958 702.47 158.868 693.349 155.067C691.643 153.36 689.936 151.653 688.229 149.947C685.799 144.479 683.635 138.904 681.744 133.221C686.455 130.432 691.458 128.156 696.763 126.395C697.22 125.199 697.452 124.062 697.445 122.981C699.22 122.206 701.036 121.637 702.907 121.275C702.907 121.957 702.907 122.64 702.907 123.323C707.665 121.891 712.218 120.071 716.56 117.861ZM713.829 128.784C715.83 129.323 717.086 130.688 717.584 132.88C719.475 137.407 718.451 141.161 714.512 144.144C709.317 147.931 703.624 149.297 697.445 148.24C693.425 145.879 691.602 142.466 691.984 138C695.124 136.879 698.196 135.627 701.2 134.245C702.279 137.078 703.528 139.809 704.955 142.437C706.245 141.68 707.61 141.111 709.051 140.731C709.406 140.348 709.638 139.892 709.733 139.365C708.716 136.763 707.802 134.146 707.003 131.515C709.488 130.994 711.761 130.083 713.829 128.784Z" fill="#36B4E5"/>
<path opacity="0.914" fill-rule="evenodd" clip-rule="evenodd" d="M707.003 162.917C717.352 160.631 723.838 164.5 726.459 174.523C727.838 181.083 725.449 185.521 719.291 187.835C716.615 188.624 713.884 188.965 711.099 188.859C710.123 183.171 709.099 177.482 708.027 171.792C703.337 173.66 701.747 177.073 703.248 182.032C703.856 183.933 704.655 185.753 705.638 187.493C703.569 190.335 701.405 190.563 699.152 188.176C695.719 181.979 695.261 175.608 697.787 169.061C700.19 165.879 703.262 163.831 707.003 162.917ZM713.147 171.109C719.339 170.792 721.387 173.409 719.291 178.96C717.817 179.583 716.335 180.151 714.854 180.667C714.355 177.454 713.789 174.268 713.147 171.109Z" fill="#36B4E5"/>
<path opacity="0.869" fill-rule="evenodd" clip-rule="evenodd" d="M686.523 174.523C691.793 174.826 693.95 177.556 693.008 182.715C690.052 186.355 687.089 186.355 684.133 182.715C682.399 179.206 683.191 176.476 686.523 174.523Z" fill="#36B4E5"/>
<path opacity="0.929" fill-rule="evenodd" clip-rule="evenodd" d="M685.84 195.003C700.128 195.58 714.464 196.036 728.848 196.368C728.848 199.099 728.848 201.829 728.848 204.56C728.131 204.458 727.448 204.572 726.8 204.901C731.442 216.444 727.571 222.929 715.195 224.357C702.702 223.929 697.24 217.557 698.811 205.243C694.557 204.149 690.236 203.694 685.84 203.877C685.84 200.919 685.84 197.961 685.84 195.003ZM705.637 204.56C710.648 204.447 715.652 204.56 720.656 204.901C723.687 211.321 721.639 214.848 714.512 215.483C710.238 215.338 706.934 213.517 704.613 210.021C704.306 208.087 704.647 206.267 705.637 204.56Z" fill="#36B4E5"/>
<path opacity="0.989" fill-rule="evenodd" clip-rule="evenodd" d="M309.691 196.368C334.042 196.368 358.386 196.368 382.736 196.368C382.736 211.842 382.736 227.315 382.736 242.789C362.939 242.675 343.142 242.789 323.344 243.131C318.702 244.783 316.081 248.082 315.494 253.029C315.152 294.671 315.036 336.314 315.152 377.957C299.909 377.957 284.658 377.957 269.414 377.957C269.086 329.239 269.427 280.542 270.438 231.867C276.131 211.794 289.218 199.961 309.691 196.368Z" fill="#36B4E5"/>
<path opacity="0.983" fill-rule="evenodd" clip-rule="evenodd" d="M209.339 407.312C210.24 407.196 211.039 407.423 211.728 407.995C235.307 449.084 270.915 468.773 318.565 467.045C358.495 462.697 388.081 443.009 407.312 407.995C407.77 407.767 408.22 407.539 408.677 407.312C421.17 413.558 433.684 419.815 446.224 426.085C447.289 426.728 448.197 427.525 448.955 428.475C422.351 477.681 381.166 505.787 325.392 512.784C261.351 516.771 211.626 492.311 176.229 439.397C174.031 435.793 172.092 432.038 170.427 428.133C183.418 421.183 196.389 414.242 209.339 407.312Z" fill="#36B4E5"/>
</svg>
