<svg width="59" height="23" viewBox="0 0 59 23" fill="none" xmlns="http://www.w3.org/2000/svg">
<path d="M20.3516 10L17.9609 3.72461H19.7832L21.1543 7.63867L22.5195 3.72461H24.3477L21.957 10H20.3516ZM26.8438 2.01953C26.8438 2.16797 26.8145 2.30664 26.7559 2.43555C26.7012 2.56445 26.625 2.67773 26.5273 2.77539C26.4297 2.86914 26.3145 2.94531 26.1816 3.00391C26.0527 3.05859 25.9141 3.08594 25.7656 3.08594C25.6172 3.08594 25.4766 3.05859 25.3438 3.00391C25.2148 2.94531 25.1016 2.86914 25.0039 2.77539C24.9102 2.67773 24.834 2.56445 24.7754 2.43555C24.7207 2.30664 24.6934 2.16797 24.6934 2.01953C24.6934 1.875 24.7207 1.73828 24.7754 1.60938C24.834 1.47656 24.9102 1.36328 25.0039 1.26953C25.1016 1.17187 25.2148 1.0957 25.3438 1.04102C25.4766 0.982422 25.6172 0.953125 25.7656 0.953125C25.9141 0.953125 26.0527 0.982422 26.1816 1.04102C26.3145 1.0957 26.4297 1.17187 26.5273 1.26953C26.625 1.36328 26.7012 1.47656 26.7559 1.60938C26.8145 1.73828 26.8438 1.875 26.8438 2.01953ZM26.5684 10H24.957V3.72461H26.5684V10ZM30.2891 8.46484C30.3516 8.48438 30.4141 8.49805 30.4766 8.50586C30.5391 8.50977 30.6016 8.51172 30.6641 8.51172C30.8203 8.51172 30.9707 8.49023 31.1152 8.44727C31.2598 8.4043 31.3945 8.34375 31.5195 8.26562C31.6484 8.18359 31.7617 8.08594 31.8594 7.97266C31.9609 7.85547 32.043 7.72656 32.1055 7.58594L33.2773 8.76367C33.1289 8.97461 32.957 9.16406 32.7617 9.33203C32.5703 9.5 32.3613 9.64258 32.1348 9.75977C31.9121 9.87695 31.6758 9.96484 31.4258 10.0234C31.1797 10.0859 30.9258 10.1172 30.6641 10.1172C30.2227 10.1172 29.8066 10.0352 29.416 9.87109C29.0293 9.70703 28.6895 9.47852 28.3965 9.18555C28.1074 8.89258 27.8789 8.54492 27.7109 8.14258C27.543 7.73633 27.459 7.29102 27.459 6.80664C27.459 6.31055 27.543 5.85742 27.7109 5.44727C27.8789 5.03711 28.1074 4.6875 28.3965 4.39844C28.6895 4.10938 29.0293 3.88477 29.416 3.72461C29.8066 3.56445 30.2227 3.48438 30.6641 3.48438C30.9258 3.48438 31.1816 3.51562 31.4316 3.57812C31.6816 3.64063 31.918 3.73047 32.1406 3.84766C32.3672 3.96484 32.5781 4.10938 32.7734 4.28125C32.9688 4.44922 33.1406 4.63867 33.2891 4.84961L30.2891 8.46484ZM31.1094 5.16602C31.0352 5.13867 30.9609 5.12109 30.8867 5.11328C30.8164 5.10547 30.7422 5.10156 30.6641 5.10156C30.4453 5.10156 30.2383 5.14258 30.043 5.22461C29.8516 5.30273 29.6836 5.41602 29.5391 5.56445C29.3984 5.71289 29.2871 5.89258 29.2051 6.10352C29.123 6.31055 29.082 6.54492 29.082 6.80664C29.082 6.86523 29.084 6.93164 29.0879 7.00586C29.0957 7.08008 29.1055 7.15625 29.1172 7.23438C29.1328 7.30859 29.1504 7.38086 29.1699 7.45117C29.1895 7.52148 29.2148 7.58398 29.2461 7.63867L31.1094 5.16602ZM39.5352 4.97266L38.3633 6.15039C38.3047 5.98633 38.2246 5.83984 38.123 5.71094C38.0215 5.57812 37.9062 5.4668 37.7773 5.37695C37.6523 5.28711 37.5156 5.21875 37.3672 5.17188C37.2188 5.125 37.0664 5.10156 36.9102 5.10156C36.6914 5.10156 36.4844 5.14648 36.2891 5.23633C36.0977 5.32617 35.9297 5.45312 35.7852 5.61719C35.6445 5.77734 35.5332 5.96875 35.4512 6.19141C35.3691 6.41406 35.3281 6.66016 35.3281 6.92969C35.3281 7.14844 35.3691 7.35352 35.4512 7.54492C35.5332 7.73633 35.6445 7.9043 35.7852 8.04883C35.9297 8.19336 36.0977 8.30664 36.2891 8.38867C36.4844 8.4707 36.6914 8.51172 36.9102 8.51172C37.0664 8.51172 37.2168 8.49023 37.3613 8.44727C37.5059 8.4043 37.6406 8.34375 37.7656 8.26562C37.8945 8.18359 38.0078 8.08594 38.1055 7.97266C38.207 7.85547 38.2891 7.72656 38.3516 7.58594L39.5234 8.76367C39.375 8.97461 39.2031 9.16406 39.0078 9.33203C38.8164 9.5 38.6074 9.64258 38.3809 9.75977C38.1582 9.87695 37.9219 9.96484 37.6719 10.0234C37.4258 10.0859 37.1719 10.1172 36.9102 10.1172C36.4688 10.1172 36.0527 10.0352 35.6621 9.87109C35.2754 9.70312 34.9355 9.47461 34.6426 9.18555C34.3535 8.89648 34.125 8.55859 33.957 8.17188C33.7891 7.78516 33.7051 7.37109 33.7051 6.92969C33.7051 6.44922 33.7891 6 33.957 5.58203C34.125 5.16406 34.3535 4.80078 34.6426 4.49219C34.9355 4.17969 35.2754 3.93359 35.6621 3.75391C36.0527 3.57422 36.4688 3.48438 36.9102 3.48438C37.1719 3.48438 37.4277 3.51758 37.6777 3.58398C37.9316 3.65039 38.1719 3.74805 38.3984 3.87695C38.6289 4.00195 38.8398 4.15625 39.0312 4.33984C39.2266 4.52344 39.3945 4.73438 39.5352 4.97266ZM41.9316 10H40.3203V1.22852H41.9316V10ZM49.2324 10H48.8457L48.2246 9.13867C48.0723 9.27539 47.9102 9.4043 47.7383 9.52539C47.5703 9.64258 47.3926 9.74609 47.2051 9.83594C47.0176 9.92188 46.8242 9.99023 46.625 10.041C46.4297 10.0918 46.2305 10.1172 46.0273 10.1172C45.5859 10.1172 45.1699 10.043 44.7793 9.89453C44.3926 9.74609 44.0527 9.53125 43.7598 9.25C43.4707 8.96484 43.2422 8.61719 43.0742 8.20703C42.9062 7.79688 42.8223 7.33008 42.8223 6.80664C42.8223 6.31836 42.9062 5.87109 43.0742 5.46484C43.2422 5.05469 43.4707 4.70312 43.7598 4.41016C44.0527 4.11719 44.3926 3.89062 44.7793 3.73047C45.1699 3.56641 45.5859 3.48438 46.0273 3.48438C46.2305 3.48438 46.4316 3.50977 46.6309 3.56055C46.8301 3.61133 47.0234 3.68164 47.2109 3.77148C47.3984 3.86133 47.5762 3.9668 47.7441 4.08789C47.916 4.20898 48.0762 4.33984 48.2246 4.48047L48.8457 3.73633H49.2324V10ZM47.6211 6.80664C47.6211 6.58789 47.5781 6.37695 47.4922 6.17383C47.4102 5.9668 47.2969 5.78516 47.1523 5.62891C47.0078 5.46875 46.8379 5.3418 46.6426 5.24805C46.4512 5.15039 46.2461 5.10156 46.0273 5.10156C45.8086 5.10156 45.6016 5.13867 45.4062 5.21289C45.2148 5.28711 45.0469 5.39648 44.9023 5.54102C44.7617 5.68555 44.6504 5.86523 44.5684 6.08008C44.4863 6.29102 44.4453 6.5332 44.4453 6.80664C44.4453 7.08008 44.4863 7.32422 44.5684 7.53906C44.6504 7.75 44.7617 7.92773 44.9023 8.07227C45.0469 8.2168 45.2148 8.32617 45.4062 8.40039C45.6016 8.47461 45.8086 8.51172 46.0273 8.51172C46.2461 8.51172 46.4512 8.46484 46.6426 8.37109C46.8379 8.27344 47.0078 8.14648 47.1523 7.99023C47.2969 7.83008 47.4102 7.64844 47.4922 7.44531C47.5781 7.23828 47.6211 7.02539 47.6211 6.80664ZM58.4375 10H56.8438V6.01562C56.8438 5.90625 56.8223 5.80273 56.7793 5.70508C56.7402 5.60742 56.6836 5.52148 56.6094 5.44727C56.5352 5.37305 56.4492 5.31641 56.3516 5.27734C56.2539 5.23438 56.1504 5.21289 56.041 5.21289C55.9316 5.21289 55.8281 5.23438 55.7305 5.27734C55.6367 5.31641 55.5527 5.37305 55.4785 5.44727C55.4082 5.52148 55.3516 5.60742 55.3086 5.70508C55.2695 5.80273 55.25 5.90625 55.25 6.01562V10H53.6504V6.01562C53.6504 5.90625 53.6289 5.80273 53.5859 5.70508C53.5469 5.60742 53.4902 5.52148 53.416 5.44727C53.3418 5.37305 53.2559 5.31641 53.1582 5.27734C53.0605 5.23438 52.957 5.21289 52.8477 5.21289C52.7383 5.21289 52.6348 5.23438 52.5371 5.27734C52.4434 5.31641 52.3594 5.37305 52.2852 5.44727C52.2148 5.52148 52.1582 5.60742 52.1152 5.70508C52.0762 5.80273 52.0566 5.90625 52.0566 6.01562V10H50.457V3.72461H50.8438L51.2773 4.20508C51.5 4.01758 51.7441 3.87305 52.0098 3.77148C52.2793 3.66602 52.5586 3.61328 52.8477 3.61328C53.1406 3.61328 53.4258 3.66797 53.7031 3.77734C53.9844 3.88672 54.2305 4.07617 54.4414 4.3457C54.5391 4.21289 54.6504 4.09961 54.7754 4.00586C54.9004 3.91211 55.0312 3.83594 55.168 3.77734C55.3086 3.71875 55.4531 3.67773 55.6016 3.6543C55.75 3.62695 55.8965 3.61328 56.041 3.61328C56.373 3.61328 56.6836 3.67578 56.9727 3.80078C57.2656 3.92578 57.5195 4.09766 57.7344 4.31641C57.9531 4.53125 58.125 4.78516 58.25 5.07812C58.375 5.37109 58.4375 5.68359 58.4375 6.01562V10ZM20.2871 20H18.6875V13.7246H19.0742L19.6016 14.334C19.8594 14.0996 20.1504 13.9199 20.4746 13.7949C20.8027 13.666 21.1445 13.6016 21.5 13.6016C21.8828 13.6016 22.2441 13.6758 22.584 13.8242C22.9238 13.9688 23.2207 14.1699 23.4746 14.4277C23.7285 14.6816 23.9277 14.9805 24.0723 15.3242C24.2207 15.6641 24.2949 16.0273 24.2949 16.4141V20H22.6953V16.4141C22.6953 16.25 22.6641 16.0957 22.6016 15.9512C22.5391 15.8027 22.4531 15.6738 22.3438 15.5645C22.2344 15.4551 22.1074 15.3691 21.9629 15.3066C21.8184 15.2441 21.6641 15.2129 21.5 15.2129C21.332 15.2129 21.1738 15.2441 21.0254 15.3066C20.877 15.3691 20.748 15.4551 20.6387 15.5645C20.5293 15.6738 20.4434 15.8027 20.3809 15.9512C20.3184 16.0957 20.2871 16.25 20.2871 16.4141V20ZM27.0488 20H25.4375V11.2285H27.0488V16.7598L29.4336 13.7363H31.2734L29.1934 16.3496L31.2734 20H29.4336L28.1621 17.7207L27.0488 19.1973V20ZM35.0527 20C34.666 20 34.3027 19.9277 33.9629 19.7832C33.623 19.6348 33.3242 19.4336 33.0664 19.1797C32.8125 18.9219 32.6113 18.623 32.4629 18.2832C32.3184 17.9434 32.2461 17.5801 32.2461 17.1934V15.3301H31.4668V13.7363H32.2461V11.2285H33.8398V13.7363H36.2656V15.3301H33.8398V17.1934C33.8398 17.3613 33.8711 17.5195 33.9336 17.668C33.9961 17.8125 34.082 17.9395 34.1914 18.0488C34.3008 18.1582 34.4297 18.2461 34.5781 18.3125C34.7266 18.375 34.8848 18.4062 35.0527 18.4062H36.2656V20H35.0527ZM39.1367 19.4023C39.1367 19.543 39.1113 19.6758 39.0605 19.8008C39.0098 19.9219 38.9395 20.0273 38.8496 20.1172C38.7598 20.207 38.6543 20.2773 38.5332 20.3281C38.4121 20.3828 38.2812 20.4102 38.1406 20.4102C38.0039 20.4102 37.873 20.3828 37.748 20.3281C37.627 20.2773 37.5195 20.207 37.4258 20.1172C37.3359 20.0273 37.2637 19.9219 37.209 19.8008C37.1582 19.6758 37.1328 19.543 37.1328 19.4023C37.1328 19.2656 37.1582 19.1367 37.209 19.0156C37.2637 18.8945 37.3359 18.7891 37.4258 18.6992C37.5195 18.6094 37.627 18.5391 37.748 18.4883C37.873 18.4336 38.0039 18.4062 38.1406 18.4062C38.2812 18.4062 38.4121 18.4336 38.5332 18.4883C38.6543 18.5391 38.7598 18.6094 38.8496 18.6992C38.9395 18.7891 39.0098 18.8945 39.0605 19.0156C39.1113 19.1367 39.1367 19.2656 39.1367 19.4023ZM43.2324 20C42.8457 20 42.4824 19.9277 42.1426 19.7832C41.8027 19.6348 41.5039 19.4336 41.2461 19.1797C40.9922 18.9219 40.791 18.623 40.6426 18.2832C40.498 17.9434 40.4258 17.5801 40.4258 17.1934V15.3301H39.6465V13.7363H40.4258V11.2285H42.0195V13.7363H44.4453V15.3301H42.0195V17.1934C42.0195 17.3613 42.0508 17.5195 42.1133 17.668C42.1758 17.8125 42.2617 17.9395 42.3711 18.0488C42.4805 18.1582 42.6094 18.2461 42.7578 18.3125C42.9062 18.375 43.0645 18.4062 43.2324 18.4062H44.4453V20H43.2324ZM51.4121 16.8066C51.4121 17.2754 51.3281 17.7129 51.1602 18.1191C50.9922 18.5215 50.7637 18.8711 50.4746 19.168C50.1855 19.4609 49.8457 19.6934 49.4551 19.8652C49.0684 20.0332 48.6523 20.1172 48.207 20.1172C47.7656 20.1172 47.3496 20.0332 46.959 19.8652C46.5723 19.6934 46.2324 19.4609 45.9395 19.168C45.6504 18.8711 45.4219 18.5215 45.2539 18.1191C45.0859 17.7129 45.002 17.2754 45.002 16.8066C45.002 16.3301 45.0859 15.8887 45.2539 15.4824C45.4219 15.0762 45.6504 14.7266 45.9395 14.4336C46.2324 14.1367 46.5723 13.9043 46.959 13.7363C47.3496 13.5684 47.7656 13.4844 48.207 13.4844C48.6523 13.4844 49.0684 13.5645 49.4551 13.7246C49.8457 13.8809 50.1855 14.1055 50.4746 14.3984C50.7637 14.6875 50.9922 15.0371 51.1602 15.4473C51.3281 15.8535 51.4121 16.3066 51.4121 16.8066ZM49.8008 16.8066C49.8008 16.5488 49.7578 16.3164 49.6719 16.1094C49.5898 15.8984 49.4766 15.7188 49.332 15.5703C49.1875 15.418 49.0176 15.3027 48.8223 15.2246C48.6309 15.1426 48.4258 15.1016 48.207 15.1016C47.9883 15.1016 47.7812 15.1426 47.5859 15.2246C47.3945 15.3027 47.2266 15.418 47.082 15.5703C46.9414 15.7188 46.8301 15.8984 46.748 16.1094C46.666 16.3164 46.625 16.5488 46.625 16.8066C46.625 17.0488 46.666 17.2734 46.748 17.4805C46.8301 17.6875 46.9414 17.8672 47.082 18.0195C47.2266 18.1719 47.3945 18.293 47.5859 18.3828C47.7812 18.4688 47.9883 18.5117 48.207 18.5117C48.4258 18.5117 48.6309 18.4707 48.8223 18.3887C49.0176 18.3066 49.1875 18.1914 49.332 18.043C49.4766 17.8945 49.5898 17.7148 49.6719 17.5039C49.7578 17.293 49.8008 17.0605 49.8008 16.8066ZM53.9082 22.3906H52.2969V13.7246H52.6836L53.3223 14.4805C53.4668 14.3438 53.625 14.2148 53.7969 14.0938C53.9688 13.9727 54.1465 13.8691 54.3301 13.7832C54.5176 13.6934 54.7109 13.623 54.9102 13.5723C55.1094 13.5215 55.3105 13.4961 55.5137 13.4961C55.9551 13.4961 56.3691 13.5762 56.7559 13.7363C57.1465 13.8926 57.4863 14.1152 57.7754 14.4043C58.0684 14.6934 58.2988 15.043 58.4668 15.4531C58.6348 15.8594 58.7188 16.3105 58.7188 16.8066C58.7188 17.3223 58.6348 17.7871 58.4668 18.2012C58.2988 18.6113 58.0684 18.9609 57.7754 19.25C57.4863 19.5352 57.1465 19.7539 56.7559 19.9062C56.3691 20.0586 55.9551 20.1348 55.5137 20.1348C55.373 20.1348 55.2324 20.1191 55.0918 20.0879C54.9551 20.0566 54.8184 20.0156 54.6816 19.9648C54.5488 19.9102 54.416 19.8496 54.2832 19.7832C54.1543 19.7168 54.0293 19.6484 53.9082 19.5781V22.3906ZM57.1133 16.8066C57.1133 16.541 57.0703 16.3027 56.9844 16.0918C56.9023 15.8809 56.7891 15.7031 56.6445 15.5586C56.5 15.4102 56.3301 15.2969 56.1348 15.2188C55.9395 15.1406 55.7324 15.1016 55.5137 15.1016C55.2949 15.1016 55.0879 15.1406 54.8926 15.2188C54.7012 15.2969 54.5332 15.4102 54.3887 15.5586C54.2441 15.7031 54.1289 15.8809 54.043 16.0918C53.9609 16.3027 53.9199 16.541 53.9199 16.8066C53.9199 17.0605 53.9609 17.293 54.043 17.5039C54.1289 17.7148 54.2441 17.8945 54.3887 18.043C54.5332 18.1914 54.7012 18.3066 54.8926 18.3887C55.0879 18.4707 55.2949 18.5117 55.5137 18.5117C55.7324 18.5117 55.9395 18.4707 56.1348 18.3887C56.3301 18.3066 56.5 18.1914 56.6445 18.043C56.7891 17.8945 56.9023 17.7148 56.9844 17.5039C57.0703 17.293 57.1133 17.0605 57.1133 16.8066Z" fill="#16A34A"/>
<path fill-rule="evenodd" clip-rule="evenodd" d="M2.26164 9.72812C1.97541 9.72423 1.70213 9.84686 1.51465 10.0627C1.20123 10.414 0.92866 10.8026 0.704242 11.2213C0.255405 12.0593 0 13.0196 0 14.0323C0 17.3157 2.68612 19.9998 5.97197 19.9998C7.61488 19.9998 9.11467 19.3304 10.1945 18.2517C10.7343 17.712 11.1707 17.0694 11.4735 16.3547C11.6176 16.0338 11.5768 15.6597 11.3666 15.3773C11.1565 15.0951 10.8097 14.9486 10.4607 14.9942C10.1113 15.0401 9.81438 15.2715 9.68422 15.5986C9.48055 16.0794 9.18558 16.5136 8.82035 16.8785C8.08988 17.6085 7.08937 18.0585 5.97197 18.0585C3.73718 18.0585 1.94274 16.2654 1.94274 14.0323C1.94274 13.3438 2.1137 12.7022 2.41644 12.1376C2.56765 11.8551 2.75253 11.5927 2.96462 11.3549C3.22365 11.0728 3.29261 10.6651 3.14076 10.3137C2.9889 9.96237 2.64436 9.73297 2.26164 9.72812Z" fill="#16A34A"/>
<path fill-rule="evenodd" clip-rule="evenodd" d="M4.30338 2C3.19926 2 2.30301 2.89545 2.30301 3.99875C2.30236 4.10099 2.31175 4.20259 2.32632 4.30321C2.32632 4.30386 2.326 4.30451 2.32632 4.30515L3.53244 11.7358C3.60853 12.2033 4.01132 12.5479 4.48535 12.5508L10.8073 12.5903L12.9919 17.6567C13.195 18.1262 13.7273 18.3578 14.2094 18.1864L16.7754 17.2746C17.2809 17.0947 17.5451 16.5388 17.365 16.0338C17.1853 15.5287 16.6291 15.2657 16.1236 15.4456L14.4156 16.0532L12.3414 11.2394C12.1886 10.8852 11.8409 10.6551 11.4549 10.6529L5.31911 10.6144L5.22424 10.031H9.56399C9.91433 10.0362 10.2404 9.85207 10.4168 9.54988C10.5933 9.24736 10.5933 8.87334 10.4168 8.57114C10.2404 8.26862 9.91433 8.08485 9.56399 8.0897H4.90951L4.5663 5.97952C5.54641 5.85075 6.30278 5.01308 6.30278 3.99875C6.30278 2.89545 5.4075 2 4.30338 2Z" fill="#16A34A"/>
</svg>
